<svg xmlns="http://www.w3.org/2000/svg" width="119" height="41" fill="none">
  <path stroke="#F1E9DC" stroke-width="2" d="M2.08.954v36"/>
  <path stroke="#F1E9DC" stroke-width="2" d="M0-1h36" transform="matrix(1 0 .00009 1 0 3.508)"/>
  <path stroke="#F1E9DC" stroke-width="2" d="M116.63 40.773v-36"/>
  <path stroke="#F1E9DC" stroke-width="2" d="M0-1h36" transform="rotate(-180 59.178 19.049) skewX(.001)"/>
  <path fill="#F1E9DC" d="M36.717 28.733c-.304 0-.512-.088-.624-.264a1.021 1.021 0 0 1-.168-.6c0-.24.024-.464.072-.672.064-.224.12-.448.168-.672l.192-.672c.064-.208.12-.424.168-.648l.408-1.848a.977.977 0 0 1 .096-.528c.08-.16.16-.312.24-.456l1.872-.36c.176-.048.4-.176.672-.384.288-.224.584-.488.888-.792.304-.32.576-.648.816-.984.528-.72.976-1.424 1.344-2.112.384-.688.72-1.392 1.008-2.112.288-.736.568-1.528.84-2.376.288-.848.608-1.8.96-2.856.064-.16.12-.32.168-.48.048-.16.104-.32.168-.48a1.01 1.01 0 0 0-.24-.024c-.096 0-.152-.008-.168-.024a1.41 1.41 0 0 1-.744-.744c-.144-.352-.168-.688-.072-1.008.016-.128.104-.2.264-.216.16-.016.344-.016.552 0 .208 0 .392-.016.552-.048.448-.08.816-.136 1.104-.168.288-.048.52-.088.696-.12.192-.032.344-.064.456-.096a55.548 55.548 0 0 1 1.776-.144 26.47 26.47 0 0 1 1.512-.096 24.66 24.66 0 0 1 1.584-.048c.32 0 .632.104.936.312.304.208.488.448.552.72.016.224-.04.608-.168 1.152a27.306 27.306 0 0 1-.48 1.872 45.01 45.01 0 0 1-.72 2.256c-.256.784-.52 1.552-.792 2.304a28.378 28.378 0 0 1-.792 1.944l-.336.912c-.096.288-.232.648-.408 1.08-.064.208-.16.448-.288.72a4.213 4.213 0 0 0-.312.864c-.048.176-.04.28.024.312.08.016.2 0 .36-.048.16-.048.336-.096.528-.144.208-.048.392-.08.552-.096.08-.016.152-.024.216-.024.08 0 .152.016.216.048.352.112.608.304.768.576.16.272.24.544.24.816-.032.544-.16 1.136-.384 1.776-.224.64-.488 1.264-.792 1.872a70.416 70.416 0 0 1-.84 1.632 2.2 2.2 0 0 1-.12.288l-.144.288a1.805 1.805 0 0 1-.12.312.547.547 0 0 1-.456.168c-.176 0-.368-.088-.576-.264-.192-.16-.4-.4-.624-.72a1.458 1.458 0 0 1-.024-.696c.064-.24.192-.536.384-.888.272-.528.536-1.032.792-1.512.272-.464.464-.872.576-1.224l.072-.312c-.256.016-.52.04-.792.072-.256.016-.528.04-.816.072l-.84.096c-.272.016-.544.04-.816.072a.159.159 0 0 0-.144-.024c-.048 0-.128.016-.24.048l-1.512.048h-.288a.789.789 0 0 0-.192.024c-.368.096-.64.136-.816.12-.176-.032-.416-.024-.72.024-.256.016-.52.04-.792.072-.256.032-.52.056-.792.072-.256.032-.52.056-.792.072-.256.032-.52.056-.792.072l-.792.096-.528.048-.528.096c-.16.544-.32 1.12-.48 1.728-.144.624-.272 1.16-.384 1.608-.096.448-.152.696-.168.744a.58.58 0 0 1-.24.408c-.128.112-.44.168-.936.168Zm5.4-6.96 1.152-.072a75.576 75.576 0 0 0 1.584-.12c.56-.048 1.096-.096 1.608-.144l1.272-.12c.352-.032.544-.056.576-.072.16-.72.28-1.248.36-1.584.096-.352.184-.64.264-.864.096-.24.224-.536.384-.888.112-.288.216-.568.312-.84.112-.288.216-.568.312-.84.112-.288.216-.568.312-.84.112-.288.216-.568.312-.84l.336-.864.984-2.904c.288-.816.488-1.488.6-2.016-.32-.016-.688-.016-1.104 0-.4.016-.808.048-1.224.096-.4.032-.768.08-1.104.144a3.552 3.552 0 0 0-.768.216l-.288.888c-.016.08-.112.344-.288.792-.16.448-.384 1.024-.672 1.728a44.79 44.79 0 0 1-.984 2.28 51.017 51.017 0 0 1-1.2 2.52 31.589 31.589 0 0 1-1.32 2.424 13 13 0 0 1-1.416 1.92Zm14.812.648c-.336.112-.616.168-.84.168-.224-.016-.472-.12-.744-.312-.32-.32-.432-.64-.336-.96.112-.336.4-.664.864-.984.32-.192.552-.288.696-.288.16-.016.392.04.696.168.544.336.784.712.72 1.128-.064.4-.416.76-1.056 1.08Zm3.342.84c-.128-.128-.224-.32-.288-.576a2.96 2.96 0 0 1-.048-.744c.016-.256.056-.448.12-.576 0-.128.016-.224.048-.288.048-.08.064-.152.048-.216s0-.176.048-.336c.048-.16.096-.312.144-.456.112-.256.24-.584.384-.984l.432-1.248c.144-.432.264-.8.36-1.104.096-.32.152-.512.168-.576 0-.192.128-.296.384-.312.192-.064.424.016.696.24.272.224.488.464.648.72.128.128.176.296.144.504-.032.208-.136.504-.312.888a4.934 4.934 0 0 0-.24.648c-.08.288-.136.528-.168.72a7.727 7.727 0 0 0-.24.552c-.08.224-.152.44-.216.648a2.32 2.32 0 0 0-.096.456 11.29 11.29 0 0 1-.12.648c-.048.224-.112.4-.192.528-.144.656-.4 1.04-.768 1.152-.352.112-.664.016-.936-.288Zm2.592-9.624a1.379 1.379 0 0 1-.408-.456 1.888 1.888 0 0 1-.144-.504c0-.144.016-.232.048-.264.16-.176.296-.408.408-.696.128-.288.264-.552.408-.792.032-.048.072-.112.12-.192.064-.096.128-.152.192-.168.192-.128.456-.12.792.024.352.144.608.344.768.6.144.304.184.616.12.936-.048.32-.216.656-.504 1.008a1.63 1.63 0 0 1-.912.624c-.368.08-.664.04-.888-.12Zm3.535 8.784c-.336.112-.616.168-.84.168-.224-.016-.472-.12-.744-.312-.32-.32-.432-.64-.336-.96.112-.336.4-.664.864-.984.32-.192.552-.288.696-.288.16-.016.392.04.696.168.544.336.784.712.72 1.128-.064.4-.416.76-1.056 1.08Zm17.07 2.4c-.064.064-.216.08-.456.048a.732.732 0 0 1-.576-.336 1.94 1.94 0 0 1-.192-.768 14.712 14.712 0 0 1 0-1.2c.096-.56.256-1.296.48-2.208.224-.912.472-1.928.744-3.048a370.5 370.5 0 0 0 .864-3.48c.144-.56.256-1.032.336-1.416.096-.384.16-.672.192-.864l.072-.312a.376.376 0 0 1-.072.096l-.048.096-.048.096-.096.168c-.048.112-.16.304-.336.576a4.369 4.369 0 0 0-.36.672 7.408 7.408 0 0 1-.576 1.008c-.256.48-.544 1.032-.864 1.656-.32.624-.592 1.12-.816 1.488a7.292 7.292 0 0 1-.312.456c-.08.128-.136.232-.168.312a4.563 4.563 0 0 1-.312.648 5.534 5.534 0 0 1-.504.744 6.087 6.087 0 0 1-.384.504c-.144.192-.272.368-.384.528l-.168.216c-.032.096-.136.248-.312.456a11.61 11.61 0 0 1-1.392 1.368c-.56.448-1.024.728-1.392.84-.352.112-.76-.024-1.224-.408a4.213 4.213 0 0 1-.504-.768c-.128-.272-.192-.64-.192-1.104 0-.464.08-1.112.24-1.944.112-.528.232-1.088.36-1.68.144-.592.288-1.16.432-1.704.144-.56.272-1.04.384-1.44l.264-.864c.048-.4.056-.608.024-.624-.032-.032-.112.056-.24.264-.112.176-.32.544-.624 1.104s-.648 1.216-1.032 1.968c-.368.752-.728 1.504-1.08 2.256a484.968 484.968 0 0 1-1.656 3.048 98.334 98.334 0 0 1-1.104 1.968c-.288.48-.512.84-.672 1.08a3.93 3.93 0 0 1-.336.528 1.194 1.194 0 0 1-.144.216c-.24-.016-.448-.128-.624-.336a2.598 2.598 0 0 1-.432-.744 4.774 4.774 0 0 1-.072-.504 1.83 1.83 0 0 1 .048-.576c.064-.224.16-.464.288-.72.208-.416.408-.768.6-1.056.192-.288.312-.464.36-.528a1.728 1.728 0 0 0 .288-.72c.08-.096.2-.296.36-.6.176-.304.352-.632.528-.984l.528-.864c.224-.384.464-.792.72-1.224.256-.448.48-.856.672-1.224.704-1.264 1.264-2.272 1.68-3.024.416-.768.712-1.256.888-1.464.112-.08.208-.232.288-.456a4.58 4.58 0 0 1 .24-.528c.224-.448.448-.816.672-1.104.24-.304.448-.456.624-.456.128 0 .288.048.48.144.208.096.408.232.6.408.176.208.336.488.48.84.16.336.192.784.096 1.344a8.825 8.825 0 0 1-.12.936l-.192 1.056c-.064.352-.128.648-.192.888-.128.72-.272 1.408-.432 2.064-.144.64-.28 1.232-.408 1.776a36.365 36.365 0 0 0-.312 1.44c-.08.4-.136.728-.168.984-.016.256.016.424.096.504.048.016.112 0 .192-.048a.872.872 0 0 0 .216-.192c.096-.128.184-.256.264-.384.08-.128.184-.288.312-.48.256-.352.52-.736.792-1.152.288-.432.624-.96 1.008-1.584.4-.64.872-1.424 1.416-2.352.544-.944 1.208-2.112 1.992-3.504.368-.56.72-1.12 1.056-1.68.336-.56.64-.992.912-1.296.24-.256.536-.344.888-.264.368.08.704.28 1.008.6.304.32.472.712.504 1.176.016.224-.032.624-.144 1.2-.096.56-.232 1.192-.408 1.896a27.997 27.997 0 0 1-.6 2.064c-.048.272-.128.632-.24 1.08a58.499 58.499 0 0 1-.72 2.616c-.112.544-.208.976-.288 1.296-.064.32-.096.688-.096 1.104-.144.256-.24.624-.288 1.104-.048.48-.072.976-.072 1.488-.064.624-.2 1.064-.408 1.32-.192.256-.32.376-.384.36-.128-.048-.232-.008-.312.12Zm5.172-2.4c-.336.112-.616.168-.84.168-.224-.016-.472-.12-.744-.312-.32-.32-.432-.64-.336-.96.112-.336.4-.664.864-.984.32-.192.552-.288.696-.288.16-.016.392.04.696.168.544.336.784.712.72 1.128-.064.4-.416.76-1.056 1.08ZM6.591 34.454a.527.527 0 0 1-.39-.14.553.553 0 0 1-.13-.39v-6.06c0-.173.047-.303.14-.39a.527.527 0 0 1 .39-.14h2.39c.76 0 1.347.19 1.76.57.414.373.62.9.62 1.58 0 .687-.206 1.22-.62 1.6-.413.373-1 .56-1.76.56h-1.88v2.28c0 .167-.043.297-.13.39-.086.093-.216.14-.39.14Zm.52-3.64h1.73c.5 0 .877-.11 1.13-.33.26-.227.39-.56.39-1 0-.433-.13-.76-.39-.98-.253-.227-.63-.34-1.13-.34h-1.73v2.65Zm7.45 3.66c-.533 0-.993-.1-1.38-.3a2.235 2.235 0 0 1-.89-.87c-.206-.38-.31-.83-.31-1.35 0-.507.104-.95.31-1.33.207-.38.49-.677.85-.89.36-.213.77-.32 1.23-.32.34 0 .644.057.91.17.267.107.494.267.68.48.194.207.337.46.43.76.1.3.15.637.15 1.01 0 .113-.033.2-.1.26-.066.053-.166.08-.3.08h-3.36v-.62h3.08l-.17.14c0-.333-.05-.617-.15-.85a1.068 1.068 0 0 0-.43-.53c-.186-.127-.42-.19-.7-.19-.313 0-.58.073-.8.22-.213.147-.376.35-.49.61-.113.26-.17.563-.17.91v.06c0 .587.137 1.03.41 1.33.28.293.684.44 1.21.44.2 0 .41-.027.63-.08.227-.053.44-.143.64-.27a.53.53 0 0 1 .3-.09.333.333 0 0 1 .22.09.33.33 0 0 1 .11.2c.014.08 0 .163-.04.25a.592.592 0 0 1-.21.22c-.226.153-.49.27-.79.35-.3.073-.59.11-.87.11Zm3.689-.02a.536.536 0 0 1-.38-.13.537.537 0 0 1-.13-.38v-3.87c0-.18.046-.32.14-.42.1-.1.243-.15.43-.15h3.28c.18 0 .32.05.42.15.1.1.15.24.15.42v3.87c0 .16-.047.287-.14.38-.087.087-.21.13-.37.13-.167 0-.294-.043-.38-.13a.564.564 0 0 1-.12-.38v-3.63h-2.4v3.63c0 .16-.044.287-.13.38-.08.087-.204.13-.37.13Zm7.718.02c-.534 0-.994-.1-1.38-.3a2.234 2.234 0 0 1-.89-.87c-.207-.38-.31-.83-.31-1.35 0-.507.103-.95.31-1.33.206-.38.49-.677.85-.89.36-.213.77-.32 1.23-.32.34 0 .643.057.91.17.266.107.493.267.68.48.193.207.336.46.43.76.1.3.15.637.15 1.01 0 .113-.034.2-.1.26-.067.053-.167.08-.3.08h-3.36v-.62h3.08l-.17.14c0-.333-.05-.617-.15-.85a1.07 1.07 0 0 0-.43-.53c-.187-.127-.42-.19-.7-.19-.314 0-.58.073-.8.22-.214.147-.377.35-.49.61a2.26 2.26 0 0 0-.17.91v.06c0 .587.136 1.03.41 1.33.28.293.683.44 1.21.44.2 0 .41-.027.63-.08.226-.053.44-.143.64-.27a.529.529 0 0 1 .3-.09.333.333 0 0 1 .22.09c.06.053.096.12.11.2.013.08 0 .163-.04.25a.592.592 0 0 1-.21.22 2.6 2.6 0 0 1-.79.35c-.3.073-.59.11-.87.11Zm4.708-.02a.536.536 0 0 1-.38-.13.536.536 0 0 1-.13-.38v-3.63h-1.36c-.293 0-.44-.137-.44-.41 0-.12.04-.217.12-.29a.455.455 0 0 1 .32-.11h3.73c.293 0 .44.133.44.4a.4.4 0 0 1-.12.31c-.073.067-.18.1-.32.1h-1.36v3.63c0 .16-.043.287-.13.38-.08.087-.203.13-.37.13Zm3.51 0c-.1 0-.186-.02-.26-.06a.362.362 0 0 1-.16-.17.815.815 0 0 1-.05-.31v-3.99c0-.16.04-.28.12-.36a.44.44 0 0 1 .34-.13.44.44 0 0 1 .34.13c.08.08.12.2.12.36v3.46h-.26l2.71-3.62c.067-.087.144-.163.23-.23a.56.56 0 0 1 .35-.1c.1 0 .184.02.25.06.067.033.117.09.15.17.04.08.06.183.06.31v3.99a.51.51 0 0 1-.12.36c-.073.087-.183.13-.33.13-.153 0-.27-.043-.35-.13a.51.51 0 0 1-.12-.36v-3.46h.27l-2.72 3.63c-.06.08-.133.153-.22.22-.08.067-.196.1-.35.1Zm6.988 0a.536.536 0 0 1-.38-.13.537.537 0 0 1-.13-.38v-3.63h-1.36c-.293 0-.44-.137-.44-.41 0-.12.04-.217.12-.29a.455.455 0 0 1 .32-.11h3.73c.293 0 .44.133.44.4a.4.4 0 0 1-.12.31c-.073.067-.18.1-.32.1h-1.36v3.63c0 .16-.043.287-.13.38-.08.087-.203.13-.37.13Zm5.141.02c-.493 0-.92-.103-1.28-.31-.353-.207-.63-.5-.83-.88-.2-.38-.3-.827-.3-1.34 0-.393.057-.743.17-1.05.113-.307.273-.57.48-.79.213-.227.467-.397.76-.51.3-.12.633-.18 1-.18.487 0 .907.103 1.26.31.36.207.64.5.84.88.2.373.3.82.3 1.34 0 .387-.057.737-.17 1.05-.113.313-.277.58-.49.8-.207.22-.46.39-.76.51-.293.113-.62.17-.98.17Zm0-.78c.273 0 .513-.067.72-.2.207-.133.367-.33.48-.59.12-.26.18-.58.18-.96 0-.573-.127-1.007-.38-1.3-.253-.293-.587-.44-1-.44-.28 0-.523.067-.73.2-.207.127-.37.32-.49.58-.113.26-.17.58-.17.96 0 .567.127 1 .38 1.3.253.3.59.45 1.01.45Zm4.152 2.56c-.16 0-.284-.043-.37-.13-.087-.087-.13-.213-.13-.38v-5.8c0-.167.043-.293.13-.38a.487.487 0 0 1 .36-.13c.16 0 .283.043.37.13.086.087.13.213.13.38v.87l-.11-.21c.106-.36.316-.647.63-.86a1.88 1.88 0 0 1 1.11-.33c.433 0 .81.103 1.13.31.326.207.576.497.75.87.18.373.27.823.27 1.35 0 .513-.09.963-.27 1.35a2.01 2.01 0 0 1-.74.88c-.32.2-.7.3-1.14.3-.42 0-.787-.107-1.1-.32a1.543 1.543 0 0 1-.63-.85h.12v2.44c0 .167-.047.293-.14.38-.087.087-.21.13-.37.13Zm1.87-2.56c.28 0 .523-.067.73-.2a1.3 1.3 0 0 0 .48-.59c.113-.26.17-.58.17-.96 0-.573-.127-1.007-.38-1.3-.247-.293-.58-.44-1-.44-.274 0-.517.067-.73.2a1.23 1.23 0 0 0-.48.58c-.114.26-.17.58-.17.96 0 .567.126 1 .38 1.3.253.3.586.45 1 .45Zm5.795.78c-.5 0-.933-.103-1.3-.31-.36-.213-.64-.51-.84-.89-.2-.387-.3-.84-.3-1.36 0-.387.057-.733.17-1.04.113-.313.273-.577.48-.79.214-.213.47-.377.77-.49a2.777 2.777 0 0 1 1.75-.07c.26.067.5.18.72.34a.33.33 0 0 1 .16.2c.027.073.03.15.01.23a.38.38 0 0 1-.31.31.45.45 0 0 1-.26-.07 1.592 1.592 0 0 0-.49-.24 1.611 1.611 0 0 0-1.12.04 1.19 1.19 0 0 0-.46.33c-.127.14-.223.317-.29.53a2.7 2.7 0 0 0-.09.73c0 .547.127.977.38 1.29.26.307.627.46 1.1.46.153 0 .313-.023.48-.07.167-.047.33-.127.49-.24a.393.393 0 0 1 .26-.06.29.29 0 0 1 .19.11.36.36 0 0 1 .1.2.376.376 0 0 1-.18.43 2.108 2.108 0 0 1-.7.33c-.246.067-.486.1-.72.1Zm3.135-.09c-.166 0-.293-.043-.38-.13a.536.536 0 0 1-.13-.38v-3.93c0-.173.044-.3.13-.38a.537.537 0 0 1 .38-.13c.16 0 .284.043.37.13.087.08.13.207.13.38v1.25h1.39c.627 0 1.104.137 1.43.41.327.267.49.657.49 1.17 0 .327-.076.613-.23.86a1.52 1.52 0 0 1-.66.56c-.286.127-.63.19-1.03.19h-1.89Zm.5-.69h1.26c.347 0 .617-.073.81-.22.194-.153.29-.387.29-.7 0-.307-.096-.53-.29-.67-.193-.147-.463-.22-.81-.22h-1.26v1.81Zm4.94.76a.536.536 0 0 1-.38-.13.536.536 0 0 1-.13-.38v-3.98c0-.167.043-.293.13-.38a.537.537 0 0 1 .38-.13c.16 0 .283.043.37.13.086.087.13.213.13.38v1.52h.82l1.38-1.8a.467.467 0 0 1 .25-.2.5.5 0 0 1 .28 0 .399.399 0 0 1 .22.15c.06.067.09.15.09.25a.538.538 0 0 1-.11.3l-1.31 1.73-.25-.32c.186.02.35.067.49.14.14.073.27.183.39.33.126.147.26.34.4.58l.66 1.12c.06.113.08.22.06.32a.392.392 0 0 1-.13.24.5.5 0 0 1-.25.11.49.49 0 0 1-.29-.03.526.526 0 0 1-.24-.23l-.73-1.25c-.1-.167-.2-.297-.3-.39a.691.691 0 0 0-.31-.2 1.31 1.31 0 0 0-.43-.06h-.69v1.67c0 .16-.044.287-.13.38-.087.087-.21.13-.37.13Zm5.37 0c-.1 0-.187-.02-.26-.06a.362.362 0 0 1-.16-.17.815.815 0 0 1-.05-.31v-3.99c0-.16.04-.28.12-.36a.44.44 0 0 1 .34-.13.44.44 0 0 1 .34.13c.08.08.12.2.12.36v3.46h-.26l2.71-3.62c.067-.087.143-.163.23-.23a.56.56 0 0 1 .35-.1c.1 0 .183.02.25.06.067.033.117.09.15.17.04.08.06.183.06.31v3.99a.51.51 0 0 1-.12.36c-.073.087-.183.13-.33.13-.153 0-.27-.043-.35-.13a.51.51 0 0 1-.12-.36v-3.46h.27l-2.72 3.63c-.06.08-.133.153-.22.22-.08.067-.197.1-.35.1Zm5.928 0c-.1 0-.187-.02-.26-.06a.362.362 0 0 1-.16-.17.813.813 0 0 1-.05-.31v-3.99c0-.16.04-.28.12-.36a.44.44 0 0 1 .34-.13.44.44 0 0 1 .34.13c.08.08.12.2.12.36v3.46h-.26l2.71-3.62c.066-.087.143-.163.23-.23a.56.56 0 0 1 .35-.1c.1 0 .183.02.25.06a.32.32 0 0 1 .15.17c.04.08.06.183.06.31v3.99a.51.51 0 0 1-.12.36c-.074.087-.184.13-.33.13-.154 0-.27-.043-.35-.13a.51.51 0 0 1-.12-.36v-3.46h.27l-2.72 3.63c-.06.08-.134.153-.22.22-.08.067-.197.1-.35.1Zm1.74-5.57c-.38 0-.724-.09-1.03-.27-.3-.187-.517-.46-.65-.82-.04-.113-.047-.203-.02-.27a.308.308 0 0 1 .18-.16.302.302 0 0 1 .23.01.446.446 0 0 1 .18.21c.113.233.26.41.44.53.186.12.41.18.67.18.26 0 .48-.06.66-.18a1.27 1.27 0 0 0 .45-.53.445.445 0 0 1 .18-.21.301.301 0 0 1 .23-.01.272.272 0 0 1 .17.16c.033.067.026.157-.02.27-.16.36-.384.633-.67.82-.287.18-.62.27-1 .27Zm11.004 6.87a.455.455 0 0 1-.32-.11c-.073-.073-.11-.183-.11-.33v-.93h-3.71c-.167 0-.293-.043-.38-.13a.536.536 0 0 1-.13-.38v-3.93c0-.173.043-.3.13-.38a.537.537 0 0 1 .38-.13c.16 0 .283.043.37.13.087.08.13.207.13.38v3.64h2.28v-3.64c0-.173.043-.3.13-.38a.537.537 0 0 1 .38-.13c.16 0 .283.043.37.13.087.08.13.207.13.38v4.11l-.47-.47h.77c.153 0 .27.04.35.12.087.08.13.2.13.36v1.25c0 .293-.143.44-.43.44Zm3.744-1.28c-.533 0-.993-.1-1.38-.3a2.234 2.234 0 0 1-.89-.87c-.207-.38-.31-.83-.31-1.35 0-.507.103-.95.31-1.33.207-.38.49-.677.85-.89.36-.213.77-.32 1.23-.32.34 0 .643.057.91.17.267.107.493.267.68.48.193.207.337.46.43.76.1.3.15.637.15 1.01 0 .113-.034.2-.1.26-.067.053-.167.08-.3.08h-3.36v-.62h3.08l-.17.14c0-.333-.05-.617-.15-.85a1.07 1.07 0 0 0-.43-.53c-.187-.127-.42-.19-.7-.19-.314 0-.58.073-.8.22-.214.147-.377.35-.49.61a2.26 2.26 0 0 0-.17.91v.06c0 .587.136 1.03.41 1.33.28.293.683.44 1.21.44.2 0 .41-.027.63-.08.227-.053.44-.143.64-.27a.529.529 0 0 1 .3-.09.333.333 0 0 1 .22.09c.06.053.096.12.11.2.013.08 0 .163-.04.25a.592.592 0 0 1-.21.22 2.6 2.6 0 0 1-.79.35c-.3.073-.59.11-.87.11Zm3.688-.02a.536.536 0 0 1-.38-.13.536.536 0 0 1-.13-.38v-4c0-.173.044-.3.13-.38a.537.537 0 0 1 .38-.13c.16 0 .284.043.37.13.087.08.13.207.13.38v1.53h2.43v-1.53c0-.173.04-.3.12-.38.087-.087.214-.13.38-.13.16 0 .284.043.37.13.094.08.14.207.14.38v4a.51.51 0 0 1-.14.38c-.086.087-.21.13-.37.13-.166 0-.293-.043-.38-.13a.564.564 0 0 1-.12-.38v-1.67h-2.43v1.67c0 .16-.043.287-.13.38-.08.087-.203.13-.37.13Zm6.977 0a.537.537 0 0 1-.38-.13.54.54 0 0 1-.13-.38v-3.63h-1.36c-.293 0-.44-.137-.44-.41 0-.12.04-.217.12-.29a.456.456 0 0 1 .32-.11h3.73c.294 0 .44.133.44.4a.4.4 0 0 1-.12.31c-.073.067-.18.1-.32.1h-1.36v3.63c0 .16-.043.287-.13.38-.08.087-.203.13-.37.13Zm3.551 1.8c-.16 0-.284-.043-.37-.13-.087-.087-.13-.213-.13-.38v-5.8c0-.167.043-.293.13-.38a.485.485 0 0 1 .36-.13c.16 0 .283.043.37.13.086.087.13.213.13.38v.87l-.11-.21c.106-.36.316-.647.63-.86a1.88 1.88 0 0 1 1.11-.33c.433 0 .81.103 1.13.31.326.207.576.497.75.87.18.373.27.823.27 1.35 0 .513-.09.963-.27 1.35-.174.38-.42.673-.74.88-.32.2-.7.3-1.14.3-.42 0-.787-.107-1.1-.32a1.536 1.536 0 0 1-.63-.85h.12v2.44c0 .167-.047.293-.14.38-.087.087-.21.13-.37.13Zm1.87-2.56c.28 0 .523-.067.73-.2a1.3 1.3 0 0 0 .48-.59c.113-.26.17-.58.17-.96 0-.573-.127-1.007-.38-1.3-.247-.293-.58-.44-1-.44-.274 0-.517.067-.73.2a1.23 1.23 0 0 0-.48.58c-.114.26-.17.58-.17.96 0 .567.126 1 .38 1.3.253.3.586.45 1 .45Z"/>
</svg>
